<mxfile host="www.draw.io" modified="2020-03-11T12:03:26.106Z" agent="Mozilla/5.0 (Windows NT 10.0; Win64; x64) AppleWebKit/537.36 (KHTML, like Gecko) Chrome/80.0.3987.132 Safari/537.36" etag="9xFHvCA4lSPzImQTl8eR" version="12.8.2" type="github">
  <diagram id="upERam1naDWR55pI1PSe" name="Page-1">
    <mxGraphModel dx="1278" dy="547" grid="1" gridSize="10" guides="1" tooltips="1" connect="1" arrows="1" fold="1" page="1" pageScale="1" pageWidth="827" pageHeight="1169" math="0" shadow="0">
      <root>
        <mxCell id="0" />
        <mxCell id="1" parent="0" />
        <mxCell id="lYVgFaAdBQyYiZGRX4xZ-19" style="edgeStyle=orthogonalEdgeStyle;rounded=0;orthogonalLoop=1;jettySize=auto;html=1;exitX=0.25;exitY=0;exitDx=0;exitDy=0;entryX=1;entryY=0.5;entryDx=0;entryDy=0;" edge="1" parent="1" source="lYVgFaAdBQyYiZGRX4xZ-1" target="lYVgFaAdBQyYiZGRX4xZ-2">
          <mxGeometry relative="1" as="geometry" />
        </mxCell>
        <mxCell id="lYVgFaAdBQyYiZGRX4xZ-20" style="edgeStyle=orthogonalEdgeStyle;rounded=0;orthogonalLoop=1;jettySize=auto;html=1;exitX=0;exitY=0;exitDx=0;exitDy=0;entryX=1;entryY=0.5;entryDx=0;entryDy=0;" edge="1" parent="1" source="lYVgFaAdBQyYiZGRX4xZ-1" target="lYVgFaAdBQyYiZGRX4xZ-5">
          <mxGeometry relative="1" as="geometry" />
        </mxCell>
        <mxCell id="lYVgFaAdBQyYiZGRX4xZ-21" style="edgeStyle=orthogonalEdgeStyle;rounded=0;orthogonalLoop=1;jettySize=auto;html=1;exitX=0;exitY=0.25;exitDx=0;exitDy=0;entryX=1;entryY=0.5;entryDx=0;entryDy=0;" edge="1" parent="1" source="lYVgFaAdBQyYiZGRX4xZ-1" target="lYVgFaAdBQyYiZGRX4xZ-6">
          <mxGeometry relative="1" as="geometry" />
        </mxCell>
        <mxCell id="lYVgFaAdBQyYiZGRX4xZ-22" style="edgeStyle=orthogonalEdgeStyle;rounded=0;orthogonalLoop=1;jettySize=auto;html=1;exitX=0;exitY=0.5;exitDx=0;exitDy=0;entryX=1;entryY=0.5;entryDx=0;entryDy=0;" edge="1" parent="1" source="lYVgFaAdBQyYiZGRX4xZ-1" target="lYVgFaAdBQyYiZGRX4xZ-7">
          <mxGeometry relative="1" as="geometry" />
        </mxCell>
        <mxCell id="lYVgFaAdBQyYiZGRX4xZ-23" style="edgeStyle=orthogonalEdgeStyle;rounded=0;orthogonalLoop=1;jettySize=auto;html=1;exitX=0.75;exitY=0;exitDx=0;exitDy=0;entryX=0.5;entryY=1;entryDx=0;entryDy=0;" edge="1" parent="1" source="lYVgFaAdBQyYiZGRX4xZ-1" target="lYVgFaAdBQyYiZGRX4xZ-10">
          <mxGeometry relative="1" as="geometry" />
        </mxCell>
        <mxCell id="lYVgFaAdBQyYiZGRX4xZ-24" style="edgeStyle=orthogonalEdgeStyle;rounded=0;orthogonalLoop=1;jettySize=auto;html=1;exitX=1;exitY=0;exitDx=0;exitDy=0;entryX=0.5;entryY=1;entryDx=0;entryDy=0;" edge="1" parent="1" source="lYVgFaAdBQyYiZGRX4xZ-1" target="lYVgFaAdBQyYiZGRX4xZ-3">
          <mxGeometry relative="1" as="geometry" />
        </mxCell>
        <mxCell id="lYVgFaAdBQyYiZGRX4xZ-26" style="edgeStyle=orthogonalEdgeStyle;rounded=0;orthogonalLoop=1;jettySize=auto;html=1;exitX=1;exitY=0.25;exitDx=0;exitDy=0;entryX=0.5;entryY=0;entryDx=0;entryDy=0;" edge="1" parent="1" source="lYVgFaAdBQyYiZGRX4xZ-1" target="lYVgFaAdBQyYiZGRX4xZ-8">
          <mxGeometry relative="1" as="geometry" />
        </mxCell>
        <mxCell id="lYVgFaAdBQyYiZGRX4xZ-29" style="edgeStyle=orthogonalEdgeStyle;rounded=0;orthogonalLoop=1;jettySize=auto;html=1;exitX=1;exitY=0.5;exitDx=0;exitDy=0;entryX=0;entryY=0.5;entryDx=0;entryDy=0;" edge="1" parent="1" source="lYVgFaAdBQyYiZGRX4xZ-1" target="lYVgFaAdBQyYiZGRX4xZ-9">
          <mxGeometry relative="1" as="geometry" />
        </mxCell>
        <mxCell id="lYVgFaAdBQyYiZGRX4xZ-30" style="edgeStyle=orthogonalEdgeStyle;rounded=0;orthogonalLoop=1;jettySize=auto;html=1;exitX=1;exitY=0.75;exitDx=0;exitDy=0;entryX=0;entryY=0.75;entryDx=0;entryDy=0;" edge="1" parent="1" source="lYVgFaAdBQyYiZGRX4xZ-1" target="lYVgFaAdBQyYiZGRX4xZ-11">
          <mxGeometry relative="1" as="geometry">
            <Array as="points">
              <mxPoint x="580" y="320" />
              <mxPoint x="580" y="545" />
            </Array>
          </mxGeometry>
        </mxCell>
        <mxCell id="lYVgFaAdBQyYiZGRX4xZ-31" style="edgeStyle=orthogonalEdgeStyle;rounded=0;orthogonalLoop=1;jettySize=auto;html=1;exitX=1;exitY=1;exitDx=0;exitDy=0;entryX=0;entryY=0.5;entryDx=0;entryDy=0;" edge="1" parent="1" source="lYVgFaAdBQyYiZGRX4xZ-1" target="lYVgFaAdBQyYiZGRX4xZ-4">
          <mxGeometry relative="1" as="geometry">
            <Array as="points">
              <mxPoint x="560" y="350" />
              <mxPoint x="560" y="660" />
            </Array>
          </mxGeometry>
        </mxCell>
        <mxCell id="lYVgFaAdBQyYiZGRX4xZ-1" value="管理者功能" style="rounded=1;whiteSpace=wrap;html=1;" vertex="1" parent="1">
          <mxGeometry x="340" y="230" width="120" height="120" as="geometry" />
        </mxCell>
        <mxCell id="lYVgFaAdBQyYiZGRX4xZ-2" value="取得管理者個人資料" style="rounded=1;whiteSpace=wrap;html=1;" vertex="1" parent="1">
          <mxGeometry x="90" y="60" width="120" height="60" as="geometry" />
        </mxCell>
        <mxCell id="lYVgFaAdBQyYiZGRX4xZ-3" value="取得會員資料" style="rounded=1;whiteSpace=wrap;html=1;" vertex="1" parent="1">
          <mxGeometry x="620" y="110" width="120" height="60" as="geometry" />
        </mxCell>
        <mxCell id="lYVgFaAdBQyYiZGRX4xZ-4" value="發送會員信件" style="rounded=1;whiteSpace=wrap;html=1;" vertex="1" parent="1">
          <mxGeometry x="730" y="630" width="120" height="60" as="geometry" />
        </mxCell>
        <mxCell id="lYVgFaAdBQyYiZGRX4xZ-5" value="取得所有管理者資料" style="rounded=1;whiteSpace=wrap;html=1;" vertex="1" parent="1">
          <mxGeometry x="90" y="160" width="120" height="60" as="geometry" />
        </mxCell>
        <mxCell id="lYVgFaAdBQyYiZGRX4xZ-6" value="新增管理者功能" style="rounded=1;whiteSpace=wrap;html=1;" vertex="1" parent="1">
          <mxGeometry x="90" y="260" width="120" height="60" as="geometry" />
        </mxCell>
        <mxCell id="lYVgFaAdBQyYiZGRX4xZ-7" value="登入/登出" style="rounded=1;whiteSpace=wrap;html=1;" vertex="1" parent="1">
          <mxGeometry x="90" y="370" width="120" height="60" as="geometry" />
        </mxCell>
        <mxCell id="lYVgFaAdBQyYiZGRX4xZ-8" value="新增會員資料" style="rounded=1;whiteSpace=wrap;html=1;" vertex="1" parent="1">
          <mxGeometry x="620" y="280" width="120" height="60" as="geometry" />
        </mxCell>
        <mxCell id="lYVgFaAdBQyYiZGRX4xZ-9" value="刪除會員資料" style="rounded=1;whiteSpace=wrap;html=1;" vertex="1" parent="1">
          <mxGeometry x="730" y="380" width="120" height="60" as="geometry" />
        </mxCell>
        <mxCell id="lYVgFaAdBQyYiZGRX4xZ-10" value="修改會員資料" style="rounded=1;whiteSpace=wrap;html=1;" vertex="1" parent="1">
          <mxGeometry x="500" y="20" width="120" height="60" as="geometry" />
        </mxCell>
        <mxCell id="lYVgFaAdBQyYiZGRX4xZ-11" value="作廢會員資料" style="rounded=1;whiteSpace=wrap;html=1;" vertex="1" parent="1">
          <mxGeometry x="730" y="500" width="120" height="60" as="geometry" />
        </mxCell>
        <mxCell id="lYVgFaAdBQyYiZGRX4xZ-12" value="新增科系" style="rounded=1;whiteSpace=wrap;html=1;" vertex="1" parent="1">
          <mxGeometry x="90" y="500" width="120" height="60" as="geometry" />
        </mxCell>
        <mxCell id="lYVgFaAdBQyYiZGRX4xZ-13" value="修改科系" style="rounded=1;whiteSpace=wrap;html=1;" vertex="1" parent="1">
          <mxGeometry x="90" y="600" width="120" height="60" as="geometry" />
        </mxCell>
        <mxCell id="lYVgFaAdBQyYiZGRX4xZ-14" value="作廢科系" style="rounded=1;whiteSpace=wrap;html=1;" vertex="1" parent="1">
          <mxGeometry x="90" y="690" width="120" height="60" as="geometry" />
        </mxCell>
        <mxCell id="lYVgFaAdBQyYiZGRX4xZ-15" value="刪除科系" style="rounded=1;whiteSpace=wrap;html=1;" vertex="1" parent="1">
          <mxGeometry x="90" y="790" width="120" height="60" as="geometry" />
        </mxCell>
        <mxCell id="lYVgFaAdBQyYiZGRX4xZ-16" value="新增繳費資料" style="rounded=1;whiteSpace=wrap;html=1;" vertex="1" parent="1">
          <mxGeometry x="550" y="750" width="120" height="60" as="geometry" />
        </mxCell>
        <mxCell id="lYVgFaAdBQyYiZGRX4xZ-17" value="作廢繳費資料" style="rounded=1;whiteSpace=wrap;html=1;" vertex="1" parent="1">
          <mxGeometry x="550" y="850" width="120" height="60" as="geometry" />
        </mxCell>
        <mxCell id="lYVgFaAdBQyYiZGRX4xZ-18" value="修改繳費資料" style="rounded=1;whiteSpace=wrap;html=1;" vertex="1" parent="1">
          <mxGeometry x="550" y="950" width="120" height="60" as="geometry" />
        </mxCell>
      </root>
    </mxGraphModel>
  </diagram>
</mxfile>
